<svg xmlns="http://www.w3.org/2000/svg" version="1.1" xmlns:xlink="http://www.w3.org/1999/xlink" xmlns:svgjs="http://svgjs.dev/svgjs" width="100%" height="100%" viewBox="0 0 1000 600"><rect width="1000" height="600" x="0" y="0" fill="#ffffff"/><g><rect width="333.3333333333333" height="333.3333333333333" rx="13.333333333333334" ry="13.333333333333334" y="280.5308400421192" fill="#284b4b" transform="matrix(0.48391723440040335,0,0,0.48391723440040346,0,83.59340812404022)" x="258.3085632324219"/><path d="M482.78293284505685 372.1975119378262L482.78293284505685 522.1975119378262L465.21562515274917 522.1975119378262L465.21562515274917 452.0148196301339L384.70600976813375 452.0148196301339L384.70600976813375 522.1975119378262L367.1675482296722 522.1975119378262L367.1675482296722 372.1975119378262L384.70600976813375 372.1975119378262L384.70600976813375 436.61097347628777L465.21562515274917 436.61097347628777L465.21562515274917 372.1975119378262L482.78293284505685 372.1975119378262Z " fill="#ffffff" transform="matrix(0.48391723440040335,0,0,0.48391723440040346,0,83.59340812404022)"/><path d="M737.7045754178729 387.74508124760115L737.7045754178729 520.0129106646104L720.34123101564 520.0129106646104L720.34123101564 387.74508124760115L674.9752380431394 387.74508124760115L674.9752380431394 372.4812262011938L783.098939868155 372.4812262011938L783.098939868155 387.74508124760115L737.7045754178729 387.74508124760115ZM914.9411971184429 372.4812262011938L914.9411971184429 520.0129106646104L897.6913386273358 520.0129106646104L897.6913386273358 450.9851052224003L818.506544139375 450.9851052224003L818.506544139375 520.0129106646104L801.2283141704863 520.0129106646104L801.2283141704863 372.4812262011938L818.506544139375 372.4812262011938L818.506544139375 435.8347360871187L897.6913386273358 435.8347360871187L897.6913386273358 372.4812262011938L914.9411971184429 372.4812262011938ZM1034.952548133876 520.0129106646104L949.6678859229086 520.0129106646104L949.6678859229086 372.4812262011938L1034.2432611893405 372.4812262011938L1033.5339742448048 387.74508124760115L966.9177444140158 387.74508124760115L966.9177444140158 436.0333364315887L1030.2428828221591 436.0333364315887L1030.2428828221591 451.09859113352604L966.9177444140158 451.09859113352604L966.9177444140158 504.7490556182031L1035.7469495117562 504.7490556182031L1034.952548133876 520.0129106646104ZM1228.3325406920776 372.4812262011938L1228.3325406920776 520.0129106646104L1211.0826822009703 520.0129106646104L1211.0826822009703 450.9851052224003L1131.8978877130098 450.9851052224003L1131.8978877130098 520.0129106646104L1114.619657744121 520.0129106646104L1114.619657744121 372.4812262011938L1131.8978877130098 372.4812262011938L1131.8978877130098 435.8347360871187L1211.0826822009703 435.8347360871187L1211.0826822009703 372.4812262011938L1228.3325406920776 372.4812262011938ZM1287.203357088537 458.75889013451115L1334.6688394168632 458.75889013451115Q1313.617202903045 397.6183555155375 1311.4325991138753 390.04317094789667L1311.4325991138753 390.04317094789667Q1311.4325991138753 390.04317094789667 1287.203357088537 458.75889013451115L1287.203357088537 458.75889013451115ZM1375.2684241220845 520.0129106646104L1357.5078790309112 520.0129106646104L1340.2580205398044 473.22834380303857L1281.4155756211262 473.22834380303857L1263.5415446188276 520.0129106646104L1246.0079713499063 520.0129106646104L1302.6374410016329 372.1975114233795L1320.3128716594615 372.1975114233795L1375.2684241220845 520.0129106646104ZM1485.6902156473952 372.4812262011938L1502.9400741385025 372.4812262011938L1502.9400741385025 468.2349637135075Q1502.9400741385025 493.6841792834469 1489.0096785478222 507.95503260750434Q1475.1076544349235 522.1975144537803 1446.6794336979342 522.1975144537803Q1418.251212960945 522.1975144537803 1404.6896465814234 507.95503260750434Q1391.1280802019014 493.6841792834469 1391.1280802019014 468.03636336903753L1391.1280802019014 468.03636336903753L1391.1280802019014 372.4812262011938L1408.4914246041344 372.4812262011938L1408.4914246041344 468.3484496246332Q1408.4914246041344 488.4070844161016 1417.9674981831308 497.883157995098Q1427.4152002843457 507.35923157409434 1447.275234731344 507.35923157409434L1447.275234731344 507.35923157409434Q1466.6245825782767 507.35923157409434 1476.1573991128362 497.76967208397224Q1485.6902156473952 488.20848407163163 1485.6902156473952 468.2349637135075L1485.6902156473952 468.2349637135075L1485.6902156473952 372.4812262011938ZM1580.223979615108 438.9272271652942L1644.6839771345085 520.0129106646104L1623.518854709564 520.0129106646104L1567.0596139245258 449.59490281111044L1553.61153345613 461.45418052374663L1553.61153345613 520.0129106646104L1536.248189053897 520.0129106646104L1536.248189053897 372.4812262011938L1553.61153345613 372.4812262011938L1553.61153345613 444.9136089771751L1618.4403601866893 372.4812262011938L1640.0877977339173 372.4812262011938L1580.223979615108 438.9272271652942ZM1684.3756745507235 458.75889013451115L1731.8411568790498 458.75889013451115Q1710.7895203652315 397.6183555155375 1708.6049165760614 390.04317094789667L1708.6049165760614 390.04317094789667Q1708.6049165760614 390.04317094789667 1684.3756745507235 458.75889013451115L1684.3756745507235 458.75889013451115ZM1772.4407415842707 520.0129106646104L1754.6801964930978 520.0129106646104L1737.430338001991 473.22834380303857L1678.5878930833128 473.22834380303857L1660.7422335587958 520.0129106646104L1643.1802888120928 520.0129106646104L1699.838129941601 372.1975114233795L1717.485189121648 372.1975114233795L1772.4407415842707 520.0129106646104ZM1808.1604321110867 372.4812262011938L1808.1604321110867 520.0129106646104L1790.882202142198 520.0129106646104L1790.882202142198 372.4812262011938L1808.1604321110867 372.4812262011938Z " fill="#284b4b" transform="matrix(0.48391723440040335,0,0,0.48391723440040346,0,83.59340812404022)"/></g></svg>